<mxfile host="app.diagrams.net" agent="Mozilla/5.0 (Macintosh; Intel Mac OS X 10_15_7) AppleWebKit/605.1.15 (KHTML, like Gecko) Version/18.1.1 Safari/605.1.15" version="24.8.9">
  <diagram name="Page-1" id="aBl1eU1t2rR7vrhwCB_T">
    <mxGraphModel dx="2083" dy="2138" grid="1" gridSize="10" guides="1" tooltips="1" connect="1" arrows="1" fold="1" page="1" pageScale="1" pageWidth="850" pageHeight="1100" math="0" shadow="0">
      <root>
        <mxCell id="0" />
        <mxCell id="1" parent="0" />
        <mxCell id="cLRQNobyH-uPPng4tvMj-36" value="" style="rounded=1;whiteSpace=wrap;html=1;" parent="1" vertex="1">
          <mxGeometry x="500" y="-90" width="300" height="160" as="geometry" />
        </mxCell>
        <mxCell id="cLRQNobyH-uPPng4tvMj-23" style="edgeStyle=orthogonalEdgeStyle;rounded=0;orthogonalLoop=1;jettySize=auto;html=1;exitX=1;exitY=0.25;exitDx=0;exitDy=0;entryX=0;entryY=0.5;entryDx=0;entryDy=0;" parent="1" source="cLRQNobyH-uPPng4tvMj-13" target="cLRQNobyH-uPPng4tvMj-15" edge="1">
          <mxGeometry relative="1" as="geometry" />
        </mxCell>
        <mxCell id="cLRQNobyH-uPPng4tvMj-24" style="edgeStyle=orthogonalEdgeStyle;rounded=0;orthogonalLoop=1;jettySize=auto;html=1;exitX=1;exitY=0.75;exitDx=0;exitDy=0;entryX=0;entryY=0.5;entryDx=0;entryDy=0;" parent="1" source="cLRQNobyH-uPPng4tvMj-13" target="cLRQNobyH-uPPng4tvMj-17" edge="1">
          <mxGeometry relative="1" as="geometry" />
        </mxCell>
        <mxCell id="cLRQNobyH-uPPng4tvMj-34" style="edgeStyle=orthogonalEdgeStyle;rounded=0;orthogonalLoop=1;jettySize=auto;html=1;" parent="1" source="cLRQNobyH-uPPng4tvMj-13" edge="1">
          <mxGeometry relative="1" as="geometry">
            <mxPoint x="665" y="70" as="targetPoint" />
          </mxGeometry>
        </mxCell>
        <mxCell id="cLRQNobyH-uPPng4tvMj-47" style="edgeStyle=orthogonalEdgeStyle;rounded=0;orthogonalLoop=1;jettySize=auto;html=1;" parent="1" source="cLRQNobyH-uPPng4tvMj-13" target="cLRQNobyH-uPPng4tvMj-46" edge="1">
          <mxGeometry relative="1" as="geometry" />
        </mxCell>
        <mxCell id="cLRQNobyH-uPPng4tvMj-49" style="edgeStyle=orthogonalEdgeStyle;rounded=0;orthogonalLoop=1;jettySize=auto;html=1;exitX=0.25;exitY=1;exitDx=0;exitDy=0;" parent="1" source="cLRQNobyH-uPPng4tvMj-13" target="cLRQNobyH-uPPng4tvMj-48" edge="1">
          <mxGeometry relative="1" as="geometry" />
        </mxCell>
        <mxCell id="cLRQNobyH-uPPng4tvMj-13" value="" style="rounded=1;whiteSpace=wrap;html=1;" parent="1" vertex="1">
          <mxGeometry x="550" y="120" width="230" height="460" as="geometry" />
        </mxCell>
        <mxCell id="cLRQNobyH-uPPng4tvMj-1" value="Design a website.&lt;div&gt;1. state content, html&lt;/div&gt;&lt;div&gt;2. Media data&lt;/div&gt;&lt;div&gt;3, API data&lt;/div&gt;" style="rounded=0;whiteSpace=wrap;html=1;" parent="1" vertex="1">
          <mxGeometry x="80" y="70" width="310" height="60" as="geometry" />
        </mxCell>
        <mxCell id="cLRQNobyH-uPPng4tvMj-2" value="Actor" style="shape=umlActor;verticalLabelPosition=bottom;verticalAlign=top;html=1;outlineConnect=0;" parent="1" vertex="1">
          <mxGeometry x="70" y="340" width="30" height="60" as="geometry" />
        </mxCell>
        <mxCell id="cLRQNobyH-uPPng4tvMj-27" style="edgeStyle=orthogonalEdgeStyle;rounded=0;orthogonalLoop=1;jettySize=auto;html=1;entryX=0;entryY=0.5;entryDx=0;entryDy=0;" parent="1" source="cLRQNobyH-uPPng4tvMj-3" target="cLRQNobyH-uPPng4tvMj-26" edge="1">
          <mxGeometry relative="1" as="geometry">
            <Array as="points">
              <mxPoint x="280" y="370" />
              <mxPoint x="280" y="280" />
              <mxPoint x="260" y="280" />
              <mxPoint x="260" y="210" />
            </Array>
          </mxGeometry>
        </mxCell>
        <mxCell id="cLRQNobyH-uPPng4tvMj-28" style="edgeStyle=orthogonalEdgeStyle;rounded=0;orthogonalLoop=1;jettySize=auto;html=1;" parent="1" source="cLRQNobyH-uPPng4tvMj-3" target="cLRQNobyH-uPPng4tvMj-6" edge="1">
          <mxGeometry relative="1" as="geometry" />
        </mxCell>
        <mxCell id="cLRQNobyH-uPPng4tvMj-44" style="edgeStyle=orthogonalEdgeStyle;rounded=0;orthogonalLoop=1;jettySize=auto;html=1;exitX=0.5;exitY=1;exitDx=0;exitDy=0;exitPerimeter=0;entryX=0;entryY=0.75;entryDx=0;entryDy=0;" parent="1" source="cLRQNobyH-uPPng4tvMj-3" target="cLRQNobyH-uPPng4tvMj-43" edge="1">
          <mxGeometry relative="1" as="geometry" />
        </mxCell>
        <mxCell id="cLRQNobyH-uPPng4tvMj-3" value="" style="verticalLabelPosition=bottom;html=1;verticalAlign=top;align=center;strokeColor=none;fillColor=#00BEF2;shape=mxgraph.azure.computer;pointerEvents=1;" parent="1" vertex="1">
          <mxGeometry x="210" y="347.5" width="50" height="45" as="geometry" />
        </mxCell>
        <mxCell id="cLRQNobyH-uPPng4tvMj-4" style="edgeStyle=orthogonalEdgeStyle;rounded=0;orthogonalLoop=1;jettySize=auto;html=1;exitX=0.5;exitY=0.5;exitDx=0;exitDy=0;exitPerimeter=0;entryX=0;entryY=0.5;entryDx=0;entryDy=0;entryPerimeter=0;" parent="1" source="cLRQNobyH-uPPng4tvMj-2" target="cLRQNobyH-uPPng4tvMj-3" edge="1">
          <mxGeometry relative="1" as="geometry" />
        </mxCell>
        <mxCell id="cLRQNobyH-uPPng4tvMj-5" value="Device" style="text;html=1;align=center;verticalAlign=middle;resizable=0;points=[];autosize=1;strokeColor=none;fillColor=none;" parent="1" vertex="1">
          <mxGeometry x="200" y="400" width="60" height="30" as="geometry" />
        </mxCell>
        <mxCell id="cLRQNobyH-uPPng4tvMj-10" style="edgeStyle=orthogonalEdgeStyle;rounded=0;orthogonalLoop=1;jettySize=auto;html=1;exitX=1;exitY=0.5;exitDx=0;exitDy=0;entryX=0.013;entryY=0.563;entryDx=0;entryDy=0;entryPerimeter=0;" parent="1" source="cLRQNobyH-uPPng4tvMj-6" target="cLRQNobyH-uPPng4tvMj-13" edge="1">
          <mxGeometry relative="1" as="geometry" />
        </mxCell>
        <mxCell id="cLRQNobyH-uPPng4tvMj-6" value="Load balancer" style="rounded=1;whiteSpace=wrap;html=1;" parent="1" vertex="1">
          <mxGeometry x="350" y="347.5" width="120" height="60" as="geometry" />
        </mxCell>
        <mxCell id="cLRQNobyH-uPPng4tvMj-7" value="Gateway" style="rounded=1;whiteSpace=wrap;html=1;" parent="1" vertex="1">
          <mxGeometry x="610" y="210" width="120" height="60" as="geometry" />
        </mxCell>
        <mxCell id="cLRQNobyH-uPPng4tvMj-8" value="&lt;span style=&quot;caret-color: rgb(0, 0, 0); color: rgb(0, 0, 0); font-family: Helvetica; font-size: 12px; font-style: normal; font-variant-caps: normal; font-weight: 400; letter-spacing: normal; orphans: auto; text-align: center; text-indent: 0px; text-transform: none; white-space: normal; widows: auto; word-spacing: 0px; -webkit-text-stroke-width: 0px; background-color: rgb(251, 251, 251); text-decoration: none; display: inline !important; float: none;&quot;&gt;Gateway&lt;/span&gt;" style="rounded=1;whiteSpace=wrap;html=1;" parent="1" vertex="1">
          <mxGeometry x="610" y="333" width="120" height="60" as="geometry" />
        </mxCell>
        <mxCell id="cLRQNobyH-uPPng4tvMj-9" value="&lt;span style=&quot;caret-color: rgb(0, 0, 0); color: rgb(0, 0, 0); font-family: Helvetica; font-size: 12px; font-style: normal; font-variant-caps: normal; font-weight: 400; letter-spacing: normal; orphans: auto; text-align: center; text-indent: 0px; text-transform: none; white-space: normal; widows: auto; word-spacing: 0px; -webkit-text-stroke-width: 0px; background-color: rgb(251, 251, 251); text-decoration: none; display: inline !important; float: none;&quot;&gt;Gateway&lt;/span&gt;" style="rounded=1;whiteSpace=wrap;html=1;" parent="1" vertex="1">
          <mxGeometry x="610" y="450" width="120" height="60" as="geometry" />
        </mxCell>
        <mxCell id="cLRQNobyH-uPPng4tvMj-15" value="UMS" style="rounded=1;whiteSpace=wrap;html=1;" parent="1" vertex="1">
          <mxGeometry x="860" y="160" width="120" height="60" as="geometry" />
        </mxCell>
        <mxCell id="cLRQNobyH-uPPng4tvMj-40" style="edgeStyle=orthogonalEdgeStyle;rounded=0;orthogonalLoop=1;jettySize=auto;html=1;" parent="1" source="cLRQNobyH-uPPng4tvMj-16" target="cLRQNobyH-uPPng4tvMj-39" edge="1">
          <mxGeometry relative="1" as="geometry" />
        </mxCell>
        <mxCell id="cLRQNobyH-uPPng4tvMj-16" value="TXN" style="rounded=1;whiteSpace=wrap;html=1;" parent="1" vertex="1">
          <mxGeometry x="860" y="320" width="120" height="60" as="geometry" />
        </mxCell>
        <mxCell id="cLRQNobyH-uPPng4tvMj-17" value="Reporting" style="rounded=1;whiteSpace=wrap;html=1;" parent="1" vertex="1">
          <mxGeometry x="860" y="490" width="120" height="60" as="geometry" />
        </mxCell>
        <mxCell id="cLRQNobyH-uPPng4tvMj-22" style="edgeStyle=orthogonalEdgeStyle;rounded=0;orthogonalLoop=1;jettySize=auto;html=1;entryX=0;entryY=0.617;entryDx=0;entryDy=0;entryPerimeter=0;" parent="1" source="cLRQNobyH-uPPng4tvMj-13" target="cLRQNobyH-uPPng4tvMj-16" edge="1">
          <mxGeometry relative="1" as="geometry" />
        </mxCell>
        <mxCell id="cLRQNobyH-uPPng4tvMj-26" value="DNS" style="rounded=1;whiteSpace=wrap;html=1;" parent="1" vertex="1">
          <mxGeometry x="280" y="180" width="120" height="60" as="geometry" />
        </mxCell>
        <mxCell id="cLRQNobyH-uPPng4tvMj-33" style="edgeStyle=orthogonalEdgeStyle;rounded=0;orthogonalLoop=1;jettySize=auto;html=1;" parent="1" source="cLRQNobyH-uPPng4tvMj-30" target="cLRQNobyH-uPPng4tvMj-20" edge="1">
          <mxGeometry relative="1" as="geometry" />
        </mxCell>
        <mxCell id="cLRQNobyH-uPPng4tvMj-30" value="" style="outlineConnect=0;dashed=0;verticalLabelPosition=bottom;verticalAlign=top;align=center;html=1;shape=mxgraph.aws3.cache_node;fillColor=#2E73B8;gradientColor=none;" parent="1" vertex="1">
          <mxGeometry x="1100" y="150" width="60" height="63" as="geometry" />
        </mxCell>
        <mxCell id="cLRQNobyH-uPPng4tvMj-31" value="" style="group" parent="1" vertex="1" connectable="0">
          <mxGeometry x="1290" y="80" width="230" height="320" as="geometry" />
        </mxCell>
        <mxCell id="cLRQNobyH-uPPng4tvMj-20" value="UserDb" style="rounded=1;whiteSpace=wrap;html=1;" parent="cLRQNobyH-uPPng4tvMj-31" vertex="1">
          <mxGeometry width="230" height="320" as="geometry" />
        </mxCell>
        <mxCell id="cLRQNobyH-uPPng4tvMj-18" value="" style="shape=cylinder3;whiteSpace=wrap;html=1;boundedLbl=1;backgroundOutline=1;size=15;" parent="cLRQNobyH-uPPng4tvMj-31" vertex="1">
          <mxGeometry x="90" y="60" width="60" height="80" as="geometry" />
        </mxCell>
        <mxCell id="cLRQNobyH-uPPng4tvMj-19" value="" style="shape=cylinder3;whiteSpace=wrap;html=1;boundedLbl=1;backgroundOutline=1;size=15;" parent="cLRQNobyH-uPPng4tvMj-31" vertex="1">
          <mxGeometry x="90" y="190" width="60" height="80" as="geometry" />
        </mxCell>
        <mxCell id="cLRQNobyH-uPPng4tvMj-32" style="edgeStyle=orthogonalEdgeStyle;rounded=0;orthogonalLoop=1;jettySize=auto;html=1;entryX=0;entryY=0.5;entryDx=0;entryDy=0;entryPerimeter=0;" parent="1" source="cLRQNobyH-uPPng4tvMj-15" target="cLRQNobyH-uPPng4tvMj-30" edge="1">
          <mxGeometry relative="1" as="geometry" />
        </mxCell>
        <mxCell id="cLRQNobyH-uPPng4tvMj-35" value="" style="shape=cylinder3;whiteSpace=wrap;html=1;boundedLbl=1;backgroundOutline=1;size=15;" parent="1" vertex="1">
          <mxGeometry x="570" y="-40" width="60" height="80" as="geometry" />
        </mxCell>
        <mxCell id="cLRQNobyH-uPPng4tvMj-37" value="" style="shape=cylinder3;whiteSpace=wrap;html=1;boundedLbl=1;backgroundOutline=1;size=15;" parent="1" vertex="1">
          <mxGeometry x="680" y="-40" width="60" height="80" as="geometry" />
        </mxCell>
        <mxCell id="cLRQNobyH-uPPng4tvMj-38" value="GatewayDb" style="text;html=1;align=center;verticalAlign=middle;resizable=0;points=[];autosize=1;strokeColor=none;fillColor=none;" parent="1" vertex="1">
          <mxGeometry x="625" y="-130" width="90" height="30" as="geometry" />
        </mxCell>
        <mxCell id="cLRQNobyH-uPPng4tvMj-41" style="edgeStyle=orthogonalEdgeStyle;rounded=0;orthogonalLoop=1;jettySize=auto;html=1;entryX=0.5;entryY=1;entryDx=0;entryDy=0;" parent="1" source="cLRQNobyH-uPPng4tvMj-39" target="cLRQNobyH-uPPng4tvMj-17" edge="1">
          <mxGeometry relative="1" as="geometry">
            <Array as="points">
              <mxPoint x="1096" y="511" />
              <mxPoint x="1096" y="640" />
              <mxPoint x="920" y="640" />
            </Array>
          </mxGeometry>
        </mxCell>
        <mxCell id="cLRQNobyH-uPPng4tvMj-39" value="" style="sketch=0;points=[[0,0,0],[0.25,0,0],[0.5,0,0],[0.75,0,0],[1,0,0],[0,1,0],[0.25,1,0],[0.5,1,0],[0.75,1,0],[1,1,0],[0,0.25,0],[0,0.5,0],[0,0.75,0],[1,0.25,0],[1,0.5,0],[1,0.75,0]];outlineConnect=0;fontColor=#232F3E;fillColor=#8C4FFF;strokeColor=#ffffff;dashed=0;verticalLabelPosition=bottom;verticalAlign=top;align=center;html=1;fontSize=12;fontStyle=0;aspect=fixed;shape=mxgraph.aws4.resourceIcon;resIcon=mxgraph.aws4.managed_streaming_for_kafka;" parent="1" vertex="1">
          <mxGeometry x="1212" y="472" width="78" height="78" as="geometry" />
        </mxCell>
        <mxCell id="cLRQNobyH-uPPng4tvMj-42" value="Messaging" style="text;html=1;align=center;verticalAlign=middle;resizable=0;points=[];autosize=1;strokeColor=none;fillColor=none;" parent="1" vertex="1">
          <mxGeometry x="1212" y="548" width="80" height="30" as="geometry" />
        </mxCell>
        <mxCell id="cLRQNobyH-uPPng4tvMj-45" style="edgeStyle=orthogonalEdgeStyle;rounded=0;orthogonalLoop=1;jettySize=auto;html=1;entryX=0;entryY=0.75;entryDx=0;entryDy=0;" parent="1" source="cLRQNobyH-uPPng4tvMj-43" target="cLRQNobyH-uPPng4tvMj-6" edge="1">
          <mxGeometry relative="1" as="geometry" />
        </mxCell>
        <mxCell id="cLRQNobyH-uPPng4tvMj-43" value="CDN" style="rounded=1;whiteSpace=wrap;html=1;" parent="1" vertex="1">
          <mxGeometry x="210" y="533" width="120" height="60" as="geometry" />
        </mxCell>
        <mxCell id="cLRQNobyH-uPPng4tvMj-46" value="FIle storage like S3" style="rounded=1;whiteSpace=wrap;html=1;" parent="1" vertex="1">
          <mxGeometry x="760" y="700" width="120" height="60" as="geometry" />
        </mxCell>
        <mxCell id="cLRQNobyH-uPPng4tvMj-48" value="Beta service" style="rounded=1;whiteSpace=wrap;html=1;" parent="1" vertex="1">
          <mxGeometry x="560" y="730" width="120" height="60" as="geometry" />
        </mxCell>
      </root>
    </mxGraphModel>
  </diagram>
</mxfile>
